<svg width="33" height="34" viewBox="0 0 33 34" fill="none" xmlns="http://www.w3.org/2000/svg">
<path fill-rule="evenodd" clip-rule="evenodd" d="M16.5 0.475586C7.3873 0.475586 0 7.86289 0 16.9756C0 26.0883 7.3873 33.4756 16.5 33.4756C25.6127 33.4756 33 26.0883 33 16.9756C33 12.5995 31.2616 8.40267 28.1673 5.30832C25.0729 2.21397 20.8761 0.475586 16.5 0.475586ZM29.7001 16.9753C27.8106 16.408 25.8485 16.1189 23.8756 16.1173C22.7019 16.133 21.5316 16.2489 20.3776 16.4638C19.9651 15.4573 19.5361 14.4838 19.0741 13.5103C21.7876 12.1545 24.2621 10.3656 26.4001 8.21383C28.5417 10.6282 29.7168 13.7481 29.7001 16.9753ZM17.9356 11.3326C20.3838 10.1045 22.6135 8.48236 24.5356 6.53109C22.2339 4.75226 19.4091 3.78358 16.5001 3.77559C15.4321 3.77989 14.3684 3.91285 13.3321 4.17159C15.0531 6.43342 16.5924 8.82789 17.9356 11.3326ZM10.923 5.0296C12.7112 7.3363 14.3061 9.78662 15.6915 12.3556C12.7933 13.4873 9.71121 14.0747 6.59995 14.0881C5.624 14.0775 4.64922 14.0169 3.67945 13.9066C4.617 9.99935 7.2832 6.73189 10.923 5.0296ZM3.29999 16.3486V16.9757C3.30764 20.2313 4.51818 23.3693 6.69899 25.7866C9.26641 21.6114 13.2668 18.5144 17.952 17.0746C17.6055 16.2167 17.2095 15.3917 16.8135 14.5667L16.8135 14.5667C13.5669 15.8756 10.1005 16.5532 6.59999 16.5632C5.49664 16.5593 4.39456 16.4877 3.29999 16.3486ZM8.5473 27.486C10.8106 23.5694 14.4897 20.6698 18.8268 19.3845C19.987 22.5905 20.8109 25.9083 21.2853 29.2845C17.0202 30.9625 12.1882 30.2865 8.5473 27.5025V27.486ZM21.2687 18.8236C22.3218 21.8338 23.1058 24.9314 23.6117 28.0801C26.6413 26.1453 28.7507 23.0586 29.4527 19.5331C27.6543 18.934 25.7713 18.6276 23.8757 18.6256C23.0033 18.6335 22.1324 18.6996 21.2687 18.8236Z" fill="#020E35"/>
</svg>
