<svg width="34" height="36" viewBox="0 0 34 36" fill="none" xmlns="http://www.w3.org/2000/svg">
<path d="M34 4.36447V31.5867C34 33.7345 32.3086 35.4756 30.2222 35.4756H23.1389C22.6173 35.4756 22.1944 35.0403 22.1944 34.5034V22.8367H26.6144C27.0633 22.8368 27.4502 22.5117 27.54 22.0589L28.22 18.5589C28.2481 18.4175 28.2137 18.2706 28.1261 18.1579C28.0385 18.0452 27.9068 17.9784 27.7667 17.9756H22.1944V11.6561C22.1944 11.3877 22.4059 11.17 22.6667 11.17H27.3889C27.9105 11.17 28.3333 10.7348 28.3333 10.1978V7.28114C28.3333 6.7442 27.9105 6.30892 27.3889 6.30892H22.6667C19.5371 6.30892 17 8.92059 17 12.1423V17.9756H14.6767C14.1551 17.9756 13.7322 18.4109 13.7322 18.9478V21.8645C13.7322 22.4014 14.1551 22.8367 14.6767 22.8367H17V34.5034C17 35.0403 16.5772 35.4756 16.0556 35.4756H3.77778C1.69137 35.4756 0 33.7345 0 31.5867V4.36447C0 2.2167 1.69137 0.475586 3.77778 0.475586H30.2222C32.3086 0.475586 34 2.2167 34 4.36447Z" fill="#020E35"/>
</svg>
