<svg width="34" height="34" viewBox="0 0 34 34" fill="none" xmlns="http://www.w3.org/2000/svg">
<path fill-rule="evenodd" clip-rule="evenodd" d="M3.77778 0.475586H30.2222C32.3086 0.475586 34 2.11721 34 4.14225V29.8089C34 31.834 32.3086 33.4756 30.2222 33.4756H3.77778C1.69137 33.4756 0 31.834 0 29.8089V4.14225C0 2.11721 1.69137 0.475586 3.77778 0.475586ZM9.44444 27.9756C9.96605 27.9756 10.3889 27.5652 10.3889 27.0589V14.2256C10.3889 13.7193 9.96605 13.3089 9.44444 13.3089H6.61111C6.08951 13.3089 5.66667 13.7193 5.66667 14.2256V27.0589C5.66667 27.5652 6.08951 27.9756 6.61111 27.9756H9.44444ZM8.02778 11.4756C6.46297 11.4756 5.19444 10.2444 5.19444 8.72559C5.19444 7.2068 6.46297 5.97559 8.02778 5.97559C9.59258 5.97559 10.8611 7.2068 10.8611 8.72559C10.8611 10.2444 9.59258 11.4756 8.02778 11.4756ZM27.3889 27.9756C27.9105 27.9756 28.3333 27.5652 28.3333 27.059V18.6256C28.3946 15.7121 26.1755 13.2256 23.1956 12.869C21.1122 12.6843 19.0934 13.6287 17.9444 15.3256V14.2256C17.9444 13.7194 17.5216 13.309 17 13.309H14.1667C13.6451 13.309 13.2222 13.7194 13.2222 14.2256V27.059C13.2222 27.5652 13.6451 27.9756 14.1667 27.9756H17C17.5216 27.9756 17.9444 27.5652 17.9444 27.059V20.184C17.9444 18.6652 19.213 17.434 20.7778 17.434C22.3426 17.434 23.6111 18.6652 23.6111 20.184V27.059C23.6111 27.5652 24.034 27.9756 24.5556 27.9756H27.3889Z" fill="#020E35"/>
</svg>
