<svg width="34" height="34" viewBox="0 0 34 34" fill="none" xmlns="http://www.w3.org/2000/svg">
<path fill-rule="evenodd" clip-rule="evenodd" d="M24.5556 0.475586H9.44444C4.22842 0.475586 0 4.57964 0 9.64225V24.3089C0 29.3715 4.22842 33.4756 9.44444 33.4756H24.5556C29.7716 33.4756 34 29.3715 34 24.3089V9.64225C34 4.57964 29.7716 0.475586 24.5556 0.475586ZM30.6944 24.3089C30.6841 27.5954 27.9417 30.2572 24.5556 30.2673H9.44444C6.05833 30.2572 3.31593 27.5954 3.30555 24.3089V9.64225C3.31593 6.35573 6.05833 3.69399 9.44444 3.68392H24.5556C27.9417 3.69399 30.6841 6.35573 30.6944 9.64225V24.3089ZM25.9722 10.1006C27.0154 10.1006 27.8611 9.27977 27.8611 8.26725C27.8611 7.25473 27.0154 6.43392 25.9722 6.43392C24.929 6.43392 24.0833 7.25473 24.0833 8.26725C24.0833 9.27977 24.929 10.1006 25.9722 10.1006ZM17 8.72561C12.3056 8.72561 8.5 12.4193 8.5 16.9756C8.5 21.532 12.3056 25.2256 17 25.2256C21.6944 25.2256 25.5 21.532 25.5 16.9756C25.505 14.7861 24.6111 12.6848 23.016 11.1366C21.4208 9.58835 19.2559 8.72072 17 8.72561ZM11.8056 16.9756C11.8056 19.76 14.1312 22.0173 17 22.0173C19.8688 22.0173 22.1944 19.76 22.1944 16.9756C22.1944 14.1911 19.8688 11.9339 17 11.9339C14.1312 11.9339 11.8056 14.1911 11.8056 16.9756Z" fill="#020E35"/>
</svg>
