<svg width="80" height="81" viewBox="0 0 80 81" fill="none" xmlns="http://www.w3.org/2000/svg">
<rect y="80.4756" width="80" height="80" rx="40" transform="rotate(-90 0 80.4756)" fill="#2B2B2B"/>
<path d="M18.054 38.9161C17.4481 39.219 17.4481 40.2035 18.054 40.5064C22.7493 43.0812 27.5203 45.4289 32.6699 46.792C33.4272 46.9435 34.1845 46.1105 33.7302 45.4289C32.6699 43.9143 31.3825 42.6269 29.8679 41.4909C40.4702 41.7938 51.451 43.2327 61.9018 40.7336C62.6591 40.5821 62.5077 39.2948 61.7502 39.3706C50.9208 40.7336 40.1671 39.6734 29.3377 39.522C30.4736 38.2346 31.6096 36.9472 32.7455 35.7355C33.2757 35.2054 32.9727 34.0693 32.064 34.1451C27.0659 34.751 22.3706 36.4171 18.054 38.9161ZM27.0659 39.7491C26.3843 40.2035 26.5358 41.4909 27.596 41.4909C27.6717 41.4909 27.7475 41.4909 27.7475 41.4909C28.6562 42.3997 29.565 43.2327 30.4738 44.2172C26.9902 43.0055 23.7338 41.4909 20.4774 39.7492C23.4308 38.2346 26.4601 37.0987 29.7165 36.4928C28.9592 37.3259 28.2019 38.2346 27.3688 39.0678C27.0659 39.219 26.9902 39.522 27.0659 39.7491Z" fill="white"/>
<path d="M19.5996 39.2758L31.1996 35.6758L27.9996 40.0758C29.4663 41.8091 32.1596 45.3558 31.1996 45.6758C30.2396 45.9958 23.0663 41.5424 19.5996 39.2758Z" fill="white"/>
</svg>
