<svg width="42" height="42" viewBox="0 0 42 42" fill="none" xmlns="http://www.w3.org/2000/svg">
<path d="M19.4424 17.4602L5.83823 31.1376C5.54908 31.4283 5.31969 31.7733 5.16314 32.1532C5.00668 32.533 4.92606 32.94 4.92606 33.3512C4.92606 33.7623 5.00651 34.1694 5.16297 34.5492C5.31943 34.929 5.54882 35.2742 5.83797 35.5649C6.12704 35.8557 6.47031 36.0862 6.84813 36.2436C7.22585 36.401 7.63077 36.4819 8.0397 36.482C8.44864 36.482 8.85355 36.401 9.23137 36.2437C9.60918 36.0865 9.95245 35.8559 10.2416 35.5652L15.9916 29.7843C16.2239 29.6103 16.5107 29.5261 16.7997 29.5471C17.0887 29.5679 17.3605 29.6927 17.5656 29.8983C17.7947 30.1274 17.9246 30.4381 17.927 30.763C17.9294 31.0878 17.8042 31.4006 17.5785 31.633L13.3694 35.8647C12.7855 36.4518 12.4575 37.2481 12.4575 38.0784C12.4576 38.9087 12.7857 39.7049 13.3697 40.292C13.9537 40.8791 14.7458 41.2088 15.5716 41.2088C16.3975 41.2087 17.1895 40.8789 17.7734 40.2917L29.5057 28.4958C29.6181 28.3827 29.7516 28.2931 29.8986 28.2319C30.0454 28.1706 30.2029 28.1392 30.362 28.1392C30.521 28.1392 30.6784 28.1706 30.8253 28.2319C30.9722 28.2931 31.1058 28.3827 31.2182 28.4958C31.3306 28.6088 31.4198 28.743 31.4807 28.8907C31.5416 29.0384 31.5729 29.1968 31.5729 29.3567C31.5729 29.5165 31.5416 29.6748 31.4807 29.8225C31.4198 29.9703 31.3306 30.1045 31.2182 30.2175L30.4937 30.9428C29.9098 31.53 29.5818 32.3262 29.5819 33.1566C29.5819 33.9869 29.91 34.7831 30.494 35.3702C31.078 35.9572 31.87 36.287 32.6959 36.2869C33.5218 36.2869 34.3137 35.957 34.8977 35.3699L39.8184 30.4227C40.4023 29.8357 40.7305 29.0394 40.7306 28.2091C40.7306 27.3788 40.4026 26.5825 39.8186 25.9954C39.2347 25.4082 38.4427 25.0784 37.6169 25.0783C36.791 25.0783 35.999 25.408 35.415 25.9951L34.7009 26.7155C34.4738 26.9437 34.1656 27.072 33.8444 27.072C33.5232 27.0719 33.2152 26.9436 32.9881 26.7151C32.7609 26.4868 32.6334 26.177 32.6334 25.8541C32.6335 25.5311 32.7612 25.2214 32.9883 24.993L40.3436 17.602C40.9276 17.0149 41.2556 16.2185 41.2555 15.3883C41.2554 14.5579 40.9273 13.7617 40.3433 13.1747C39.7593 12.5875 38.9673 12.2578 38.1414 12.2579C37.3156 12.2579 36.5236 12.5878 35.9396 13.1749L21.0612 28.1304C20.83 28.3573 20.5191 28.4834 20.196 28.4811C19.8729 28.4788 19.5637 28.3483 19.3358 28.118C19.1313 27.9114 19.0075 27.6378 18.9869 27.3471C18.9663 27.0564 19.0503 26.7679 19.2236 26.5343L28.6874 17.0208C29.2588 16.4311 29.5761 15.6389 29.5708 14.8155C29.5654 13.9923 29.2377 13.2042 28.6587 12.6221C28.0796 12.0399 27.2958 11.7105 26.477 11.7051C25.6581 11.6997 24.87 12.0187 24.2834 12.5932L22.493 14.3932C22.2629 14.5296 21.9942 14.5854 21.7292 14.5519C21.4642 14.5185 21.2176 14.3977 21.0281 14.2084C20.799 13.9793 20.6691 13.6686 20.6667 13.3437C20.6642 13.0188 20.7896 12.7061 21.0152 12.4737L28.0745 5.37593C28.6459 4.78616 28.9632 3.99386 28.9578 3.17061C28.9524 2.34727 28.6247 1.55924 28.0457 0.977085C27.4667 0.394934 26.6828 0.065512 25.864 0.0601257C25.0451 0.0547394 24.2571 0.373817 23.6705 0.948273L11.9357 12.7442C11.7086 12.9725 11.4005 13.1008 11.0793 13.1007C10.758 13.1006 10.45 12.9723 10.2229 12.7439C9.9958 12.5155 9.86824 12.2057 9.86832 11.8828C9.86841 11.5599 9.99605 11.2501 10.2232 11.0218L13.519 7.71077C13.8168 7.42214 14.0544 7.07673 14.218 6.69464C14.3816 6.31263 14.4677 5.90165 14.4715 5.4857C14.4753 5.06985 14.3966 4.65732 14.2401 4.27233C14.0835 3.88733 13.8522 3.53756 13.5597 3.24345C13.2672 2.94934 12.9193 2.71679 12.5364 2.55939C12.1534 2.40198 11.7431 2.3229 11.3294 2.32675C10.9157 2.33051 10.507 2.4172 10.127 2.58162C9.747 2.74603 9.40339 2.98491 9.11629 3.2844L1.62612 10.8142C1.04217 11.4012 0.714031 12.1975 0.713946 13.0278C0.713946 13.4388 0.7944 13.846 0.950861 14.2258C1.10732 14.6056 1.33671 14.9508 1.62586 15.2415C1.91493 15.5322 2.2582 15.7628 2.63601 15.9201C3.01374 16.0775 3.41866 16.1585 3.82759 16.1586C4.65341 16.1586 5.44546 15.8288 6.02949 15.2418L6.74237 14.5251C6.96945 14.2967 7.27749 14.1684 7.59871 14.1683C7.91992 14.1682 8.22805 14.2965 8.45522 14.5248C8.68239 14.7531 8.81003 15.0629 8.81012 15.3858C8.81012 15.7087 8.68256 16.0185 8.45548 16.2468L1.10022 23.638C0.528845 24.2278 0.211478 25.0201 0.216864 25.8433C0.222251 26.6666 0.549878 27.4546 1.12895 28.0368C1.70802 28.6189 2.49178 28.9483 3.31067 28.9538C4.12957 28.9592 4.91759 28.6401 5.50419 28.0656L17.5319 15.9751C17.7631 15.7482 18.0741 15.6223 18.3973 15.6247C18.7204 15.6271 19.0294 15.7577 19.2573 15.988C19.4457 16.1783 19.566 16.426 19.5995 16.6924C19.633 16.9588 19.5777 17.2288 19.4424 17.4602Z" fill="#FF5678"/>
</svg>
