<svg width="80" height="81" viewBox="0 0 80 81" fill="none" xmlns="http://www.w3.org/2000/svg">
<rect x="80" y="0.475586" width="80" height="80" rx="40" transform="rotate(90 80 0.475586)" fill="#2B2B2B"/>
<path d="M61.946 42.0351C62.5519 41.7322 62.5519 40.7477 61.946 40.4448C57.2507 37.8699 52.4797 35.5223 47.3301 34.1591C46.5728 34.0077 45.8155 34.8407 46.2698 35.5223C47.3301 37.0369 48.6175 38.3243 50.1321 39.4603C39.5298 39.1573 28.549 37.7185 18.0982 40.2176C17.3409 40.369 17.4923 41.6563 18.2498 41.5806C29.0792 40.2176 39.8329 41.2778 50.6623 41.4291C49.5264 42.7165 48.3904 44.004 47.2545 45.2156C46.7243 45.7458 47.0273 46.8818 47.936 46.8061C52.9341 46.2001 57.6294 44.5341 61.946 42.0351ZM52.9341 41.2021C53.6157 40.7477 53.4642 39.4603 52.404 39.4603C52.3283 39.4603 52.2525 39.4603 52.2525 39.4603C51.3438 38.5515 50.435 37.7185 49.5262 36.734C53.0098 37.9457 56.2662 39.4603 59.5226 41.2019C56.5692 42.7165 53.5399 43.8525 50.2835 44.4583C51.0408 43.6253 51.7981 42.7165 52.6312 41.8834C52.9341 41.7322 53.0098 41.4291 52.9341 41.2021Z" fill="white"/>
<path d="M60.4004 41.6759L48.8004 45.2759L52.0004 40.8759C50.5337 39.1425 47.8404 35.5959 48.8004 35.2759C49.7604 34.9559 56.9337 39.4092 60.4004 41.6759Z" fill="white"/>
</svg>
