<svg width="29" height="28" viewBox="0 0 29 28" fill="none" xmlns="http://www.w3.org/2000/svg">
<path d="M28.0627 9.98306L19.3691 8.75123L15.4828 1.06981C15.3766 0.859502 15.202 0.689249 14.9863 0.585762C14.4453 0.325375 13.7879 0.542364 13.5174 1.06981L9.63108 8.75123L0.937449 9.98306C0.697766 10.0164 0.478627 10.1266 0.310849 10.2935C0.108015 10.4968 -0.00375586 10.7702 9.63727e-05 11.0538C0.0039486 11.3373 0.123109 11.6078 0.331393 11.8058L6.62135 17.7846L5.13532 26.2272C5.10047 26.4236 5.12276 26.6256 5.19967 26.8102C5.27657 26.9949 5.405 27.1549 5.57041 27.272C5.73581 27.3891 5.93157 27.4587 6.13548 27.4729C6.33939 27.4871 6.5433 27.4452 6.72408 27.3522L14.5001 23.3663L22.2761 27.3522C22.4884 27.4624 22.7349 27.4991 22.9711 27.459C23.5669 27.3589 23.9675 26.808 23.8648 26.2272L22.3788 17.7846L28.6687 11.8058C28.8399 11.6422 28.9529 11.4285 28.9872 11.1949C29.0796 10.6107 28.6619 10.0699 28.0627 9.98306Z" fill="#FFC107"/>
</svg>
