<svg width="33" height="30" viewBox="0 0 33 30" fill="none" xmlns="http://www.w3.org/2000/svg">
<path d="M32.9517 4.67851C32.1003 5.85275 31.071 6.87705 29.9038 7.71186C29.9038 8.0186 29.9038 8.32534 29.9038 8.64913C29.9132 14.2195 27.761 19.5608 23.9298 23.4756C20.0986 27.3904 14.9089 29.5512 9.52399 29.4736C6.41088 29.4843 3.33764 28.7494 0.544997 27.3264C0.394418 27.2584 0.297297 27.1044 0.297869 26.9344V26.747C0.297869 26.5023 0.48965 26.3039 0.726225 26.3039C3.78633 26.1996 6.73728 25.1027 9.16153 23.1683C6.39171 23.1106 3.89957 21.4142 2.75268 18.8057C2.69474 18.6632 2.71278 18.4998 2.80027 18.3745C2.88776 18.2492 3.03206 18.1802 3.18103 18.1922C4.02284 18.2797 4.87306 18.1987 5.68526 17.9537C2.62761 17.2975 0.330122 14.6731 0.0013153 11.4609C-0.0103709 11.3068 0.0564206 11.1576 0.177561 11.0671C0.298701 10.9766 0.456679 10.9579 0.594423 11.0179C1.41496 11.3922 2.30074 11.5893 3.19751 11.5973C0.518275 9.7792 -0.638975 6.32117 0.380245 3.17888C0.485453 2.87354 0.738213 2.64797 1.04564 2.58507C1.35307 2.52217 1.66982 2.63122 1.87949 2.87213C5.49494 6.85038 10.4626 9.221 15.7351 9.48415C15.6001 8.92699 15.5337 8.35441 15.5374 7.78002C15.5868 4.7682 17.3892 2.0852 20.101 0.987113C22.8128 -0.110975 25.8973 0.593168 27.9103 2.76989C29.2825 2.49962 30.6091 2.0231 31.8479 1.35546C31.9386 1.29689 32.0537 1.29689 32.1445 1.35546C32.2011 1.44932 32.2011 1.56834 32.1445 1.6622C31.5444 3.08277 30.5308 4.27424 29.2448 5.07046C30.3709 4.93545 31.4772 4.66082 32.5399 4.25248C32.6293 4.18951 32.7469 4.18951 32.8364 4.25248C32.9114 4.28793 32.9674 4.35573 32.9896 4.43782C33.0118 4.51991 32.998 4.60795 32.9517 4.67851Z" fill="#020E35"/>
</svg>
